# xmcd
#
# Track frame offsets: 
#        151
#        15320
#        26097
#        40546
#        60155
#        74814
#        84653
#        99259
#        113672
#        133505
#        148157
#        165074
#        176184
#        192680
#
# Disc length: 2899 seconds
#
# Revision: 0
# Processed by: cddbd v1.5.1PL0 Copyright (c) Steve Scherf et al.
# Submitted via: ExactAudioCopy v0.95a5
#
DISCID=b50b510e
DTITLE=John Arthur Martinez - Stand Your Ground
DYEAR=2001
DGENRE=Country
TTITLE0=The Man Who Holds The Bow
TTITLE1=A Girl Named Texas
TTITLE2=Pool Hall
TTITLE3=Stand Your Ground
TTITLE4=Here's To Boys
TTITLE5=The Armadillo Song
TTITLE6=El Rio Amor
TTITLE7=Wild
TTITLE8=Spinning Our Wheels
TTITLE9=Everything I Never Knew I Wanted
TTITLE10=Married To Your Memory
TTITLE11=Jack Of All Hearts
TTITLE12=Show Me
TTITLE13=Everyday Is Christmas
EXTD=
EXTT0=
EXTT1=
EXTT2=
EXTT3=
EXTT4=
EXTT5=
EXTT6=
EXTT7=
EXTT8=
EXTT9=
EXTT10=
EXTT11=
EXTT12=
EXTT13=
PLAYORDER=
